<svg width="60" height="60" viewBox="0 0 60 60" fill="none" xmlns="http://www.w3.org/2000/svg">
<path d="M27.1523 8.4075C28.4198 6.135 29.0523 5 29.9998 5C30.9473 5 31.5798 6.135 32.8473 8.4075L33.1723 8.995C33.5348 9.6425 33.7148 9.965 33.9948 10.1775C34.2748 10.39 34.6248 10.47 35.3248 10.6275L35.9598 10.7725C38.4198 11.3275 39.6498 11.6075 39.9423 12.5475C40.2348 13.4875 39.3973 14.47 37.7198 16.43L37.2848 16.9375C36.8098 17.495 36.5723 17.7725 36.4648 18.1175C36.3573 18.4625 36.3923 18.835 36.4648 19.5775L36.5298 20.2525C36.7848 22.87 36.9098 24.1775 36.1448 24.76C35.3798 25.3425 34.2273 24.81 31.9248 23.75L31.3273 23.475C30.6748 23.175 30.3473 23.025 29.9998 23.025C29.6523 23.025 29.3248 23.175 28.6723 23.475L28.0748 23.75C25.7748 24.8125 24.6198 25.3425 23.8548 24.76C23.0898 24.1775 23.2148 22.87 23.4698 20.255L23.5348 19.5775C23.6073 18.835 23.6423 18.4625 23.5348 18.1175C23.4273 17.7725 23.1898 17.4925 22.7148 16.9375L22.2798 16.43C20.6048 14.47 19.7648 13.4875 20.0573 12.5475C20.3498 11.6075 21.5798 11.3275 24.0398 10.7725L24.6748 10.6275C25.3748 10.47 25.7248 10.39 26.0048 10.1775C26.2848 9.965 26.4648 9.6425 26.8248 8.995L27.1523 8.4075ZM48.5748 19.205C49.2098 18.0675 49.5248 17.5 49.9998 17.5C50.4748 17.5 50.7898 18.0675 51.4248 19.205L51.5873 19.4975C51.7673 19.8225 51.8573 19.9825 51.9973 20.09C52.1373 20.195 52.3123 20.235 52.6623 20.315L52.9798 20.385C54.2098 20.665 54.8248 20.8025 54.9698 21.275C55.1173 21.745 54.6973 22.235 53.8598 23.215L53.6423 23.4675C53.4048 23.7475 53.2848 23.8875 53.2323 24.06C53.1773 24.23 53.1973 24.4175 53.2323 24.79L53.2648 25.1275C53.3898 26.435 53.4548 27.09 53.0723 27.38C52.6898 27.67 52.1148 27.405 50.9623 26.875L50.6623 26.7375C50.3373 26.5875 50.1723 26.5125 49.9998 26.5125C49.8248 26.5125 49.6623 26.5875 49.3348 26.7375L49.0373 26.875C47.8873 27.405 47.3123 27.67 46.9273 27.38C46.5448 27.09 46.6073 26.435 46.7348 25.1275L46.7673 24.79C46.8023 24.415 46.8223 24.23 46.7673 24.06C46.7148 23.885 46.5948 23.7475 46.3573 23.4675L46.1398 23.215C45.3023 22.235 44.8823 21.745 45.0298 21.275C45.1748 20.8025 45.7898 20.665 47.0198 20.385L47.3373 20.315C47.6873 20.235 47.8623 20.195 48.0023 20.09C48.1423 19.9825 48.2323 19.82 48.4123 19.4975L48.5748 19.205ZM8.57475 19.205C9.21225 18.0675 9.52475 17.5 9.99975 17.5C10.4748 17.5 10.7898 18.0675 11.4248 19.205L11.5873 19.4975C11.7673 19.8225 11.8573 19.9825 11.9973 20.09C12.1373 20.195 12.3123 20.235 12.6623 20.315L12.9798 20.385C14.2098 20.665 14.8248 20.8025 14.9723 21.275C15.1173 21.745 14.6973 22.235 13.8598 23.215L13.6423 23.4675C13.4048 23.7475 13.2848 23.8875 13.2323 24.06C13.1773 24.23 13.1973 24.4175 13.2323 24.79L13.2648 25.1275C13.3898 26.435 13.4548 27.09 13.0723 27.38C12.6898 27.67 12.1123 27.405 10.9623 26.875L10.6623 26.7375C10.3373 26.5875 10.1723 26.5125 9.99975 26.5125C9.82475 26.5125 9.66225 26.5875 9.33475 26.7375L9.03725 26.875C7.88725 27.405 7.31225 27.67 6.92725 27.38C6.54475 27.09 6.60725 26.435 6.73475 25.1275L6.76725 24.79C6.80225 24.415 6.82225 24.23 6.76725 24.06C6.71475 23.885 6.59475 23.7475 6.35725 23.4675L6.13975 23.215C5.30225 22.235 4.88225 21.745 5.02725 21.275C5.17475 20.8025 5.78975 20.665 7.01975 20.385L7.33725 20.315C7.68725 20.235 7.86225 20.195 8.00225 20.09C8.14225 19.9825 8.23225 19.82 8.41225 19.4975L8.57475 19.205Z" stroke="#693912" stroke-width="4"/>
<path opacity="0.5" d="M10 53.47H15.65C18.175 53.47 20.7325 53.735 23.19 54.24C27.5775 55.1414 32.0919 55.2413 36.515 54.535C38.685 54.185 40.815 53.6475 42.745 52.7175C44.485 51.875 46.6175 50.6925 48.05 49.365C49.48 48.04 50.97 45.8725 52.025 44.1775C52.935 42.7225 52.495 40.94 51.06 39.8575C50.2536 39.271 49.2821 38.955 48.285 38.955C47.2879 38.955 46.3164 39.271 45.51 39.8575L40.9925 43.27C39.2425 44.595 37.33 45.8125 35.0525 46.175C34.7775 46.2175 34.49 46.2575 34.19 46.2925M34.19 46.2925C34.0984 46.3032 34.0067 46.3131 33.915 46.3225M34.19 46.2925C34.5902 46.1843 34.957 45.9781 35.2575 45.6925C35.6342 45.3666 35.9418 44.9686 36.1622 44.5218C36.3826 44.0751 36.5113 43.5888 36.5406 43.0915C36.57 42.5942 36.4995 42.0961 36.3332 41.6266C36.1669 41.157 35.9083 40.7255 35.5725 40.3575C35.2467 39.9959 34.8673 39.6864 34.4475 39.44C27.455 35.2675 16.5725 38.445 10 43.1075M34.19 46.2925C34.0996 46.3122 34.0075 46.3223 33.915 46.3225M33.915 46.3225C32.4073 46.4741 30.8884 46.4774 29.38 46.3325" stroke="#693912" stroke-width="4" stroke-linecap="round"/>
</svg>
