<svg width="30" height="30" viewBox="0 0 30 30" fill="none" xmlns="http://www.w3.org/2000/svg">
<path fill-rule="evenodd" clip-rule="evenodd" d="M11.4538 3.52375C11.25 3.92375 11.25 4.44875 11.25 5.5V13.75H9.75375C8.65 13.75 8.0975 13.75 7.83625 13.97C7.72415 14.0642 7.63568 14.1834 7.57794 14.318C7.5202 14.4526 7.49479 14.5988 7.50375 14.745C7.525 15.0875 7.90625 15.4863 8.6675 16.285L13.915 21.7863C14.2925 22.1838 14.4813 22.3813 14.7025 22.455C14.8956 22.5197 15.1044 22.5197 15.2975 22.455C15.5188 22.3813 15.7075 22.1838 16.085 21.7863L21.3325 16.2863C22.095 15.4863 22.475 15.0863 22.495 14.745C22.5041 14.5989 22.4789 14.4528 22.4214 14.3182C22.3639 14.1836 22.2756 14.0644 22.1638 13.97C21.9025 13.75 21.3513 13.75 20.2463 13.75H18.75V5.5C18.75 4.45 18.75 3.925 18.545 3.52375C18.3655 3.17082 18.0789 2.88378 17.7263 2.70375C17.3263 2.5 16.8013 2.5 15.75 2.5H14.25C13.2 2.5 12.675 2.5 12.2738 2.70375C11.9206 2.88357 11.6336 3.17063 11.4538 3.52375ZM6.25 26.25C6.25 26.5815 6.3817 26.8995 6.61612 27.1339C6.85054 27.3683 7.16848 27.5 7.5 27.5H22.5C22.8315 27.5 23.1495 27.3683 23.3839 27.1339C23.6183 26.8995 23.75 26.5815 23.75 26.25C23.75 25.9185 23.6183 25.6005 23.3839 25.3661C23.1495 25.1317 22.8315 25 22.5 25H7.5C7.16848 25 6.85054 25.1317 6.61612 25.3661C6.3817 25.6005 6.25 25.9185 6.25 26.25Z" fill="white"/>
</svg>
