<svg width="60" height="60" viewBox="0 0 60 60" fill="none" xmlns="http://www.w3.org/2000/svg">
<path d="M40 55V32.5C40 28.965 40 27.1975 38.9 26.1C37.805 25 36.0375 25 32.5 25H27.5C23.965 25 22.1975 25 21.1 26.1C20 27.195 20 28.9625 20 32.5V55" stroke="#693912" stroke-width="4" stroke-linecap="round"/>
<path opacity="0.5" d="M20 55C20 51.465 20 49.6975 18.9 48.6C17.805 47.5 16.0375 47.5 12.5 47.5C8.965 47.5 7.1975 47.5 6.1 48.6C5 49.695 5 51.4625 5 55M55 55V47.5C55 43.965 55 42.1975 53.9 41.1C52.805 40 51.0375 40 47.5 40C43.965 40 42.1975 40 41.1 41.1C40 42.195 40 43.9625 40 47.5V55" stroke="#693912" stroke-width="4" stroke-linecap="round"/>
<path d="M27.8647 7.5575C28.8147 5.85 29.2897 5 29.9997 5C30.7097 5 31.1847 5.85 32.1347 7.5575L32.3797 7.9975C32.6497 8.4825 32.7847 8.7225 32.9947 8.8825C33.2072 9.0425 33.4697 9.1025 33.9947 9.22L34.4697 9.33C36.3147 9.7475 37.2372 9.955 37.4572 10.66C37.6772 11.3675 37.0472 12.1025 35.7897 13.5725L35.4647 13.9525C35.1072 14.37 34.9272 14.5775 34.8472 14.8375C34.7672 15.0975 34.7947 15.375 34.8472 15.9325L34.8972 16.44C35.0872 18.4025 35.1822 19.385 34.6097 19.82C34.0347 20.2575 33.1697 19.8575 31.4422 19.0625L30.9972 18.8575C30.5047 18.6325 30.2597 18.5175 29.9997 18.5175C29.7397 18.5175 29.4947 18.6325 29.0022 18.8575L28.5572 19.0625C26.8297 19.8575 25.9647 20.2575 25.3897 19.82C24.8147 19.385 24.9122 18.4025 25.1022 16.44L25.1522 15.9325C25.2047 15.375 25.2322 15.0975 25.1522 14.8375C25.0722 14.58 24.8922 14.37 24.5347 13.9525L24.2097 13.5725C22.9522 12.1025 22.3222 11.3675 22.5422 10.66C22.7622 9.955 23.6847 9.7475 25.5297 9.33L26.0047 9.22C26.5297 9.1025 26.7922 9.045 27.0047 8.8825C27.2147 8.7225 27.3497 8.4825 27.6197 7.9975L27.8647 7.5575Z" stroke="#693912" stroke-width="4"/>
</svg>
