<svg width="38" height="38" viewBox="0 0 38 38" fill="none" xmlns="http://www.w3.org/2000/svg">
<g clip-path="url(#clip0_12_375)">
<path fill-rule="evenodd" clip-rule="evenodd" d="M14.2497 17.4167C13.3752 17.4167 12.6663 18.1255 12.6663 19C12.6663 19.8745 13.3752 20.5833 14.2497 20.5833H23.7497C24.6242 20.5833 25.333 19.8745 25.333 19C25.333 18.1255 24.6242 17.4167 23.7497 17.4167H14.2497ZM14.2497 22.1667C13.3752 22.1667 12.6663 22.8755 12.6663 23.75C12.6663 24.6245 13.3752 25.3333 14.2497 25.3333H23.7497C24.6242 25.3333 25.333 24.6245 25.333 23.75C25.333 22.8755 24.6242 22.1667 23.7497 22.1667H14.2497ZM19.7628 3.16649C20.8376 3.16485 21.7914 3.16339 22.6724 3.5283C23.5533 3.89321 24.2269 4.56873 24.9856 5.32988C26.4892 6.83802 27.9951 8.3439 29.5032 9.84742C30.2643 10.6062 30.9399 11.2797 31.3047 12.1607C31.6697 13.0416 31.6682 13.9955 31.6665 15.0703C31.6605 19.0538 31.6663 23.0373 31.6663 27.021C31.6665 28.4246 31.6665 29.634 31.5364 30.6024C31.3967 31.6402 31.0821 32.6352 30.2751 33.4422C29.4682 34.2491 28.4732 34.5639 27.4354 34.7033C26.4668 34.8335 25.2575 34.8335 23.8539 34.8333H14.1455C12.7419 34.8335 11.5325 34.8335 10.564 34.7033C9.52612 34.5639 8.53123 34.2491 7.72426 33.4422C6.91729 32.6352 6.60262 31.6402 6.46308 30.6024C6.33287 29.634 6.33293 28.4246 6.33301 27.021L6.33303 11.0834C6.33303 11.0485 6.33301 11.0138 6.33301 10.9792C6.33293 9.57556 6.33287 8.36619 6.46308 7.39771C6.60262 6.35982 6.91729 5.36494 7.72427 4.55797C8.53123 3.751 9.52612 3.43633 10.564 3.29679C11.5325 3.16657 12.7419 3.16664 14.1455 3.16672C16.0179 3.16683 17.8904 3.16937 19.7628 3.16649Z" fill="#FFA132"/>
</g>
<defs>
<clipPath id="clip0_12_375">
<rect width="38" height="38" fill="white"/>
</clipPath>
</defs>
</svg>
