<svg width="116" height="116" viewBox="0 0 116 116" fill="none" xmlns="http://www.w3.org/2000/svg">
<path d="M30.5889 40.1069C31.7489 40.1069 32.8741 40.2751 33.9297 40.6057C37.9326 36.1205 42.3678 32.0408 47.1711 28.4257C46.6774 26.3605 46.7739 24.198 47.4495 22.1849C42.0317 18.3021 36.1687 15.0815 29.9857 12.5917C24.1577 16.1963 19.0742 20.8841 15.0101 26.4015C18.0203 31.7375 21.5989 36.7081 25.6705 41.2321C27.1553 40.5129 28.8199 40.1069 30.5889 40.1069ZM19.2325 51.4575C19.2325 49.8625 19.5689 48.3429 20.1547 46.9741C16.5041 42.962 13.2143 38.6359 10.3237 34.0459C6.57975 41.4775 4.63285 49.6843 4.63968 58.0057C4.62968 67.6139 7.22547 77.0449 12.1507 85.2947C13.8353 75.8604 17.0067 66.7532 21.5467 58.3131C20.0442 56.3436 19.2311 53.9347 19.2325 51.4575ZM58.2085 14.4361C61.2071 14.4361 63.9215 15.6019 65.9573 17.5043C71.947 14.9189 78.1991 12.9898 84.6043 11.7507C76.5158 7.0818 67.3389 4.62902 57.9997 4.63993C51.589 4.63593 45.2304 5.79132 39.2309 8.05033C43.8499 10.3317 48.2679 12.9996 52.4375 16.0253C54.1311 15.0161 56.0973 14.4361 58.2085 14.4361ZM75.1793 67.9063C75.8772 66.4399 76.8844 65.1419 78.1315 64.1015C74.8106 53.9031 69.5481 44.4435 62.6339 36.2441C60.845 37.0011 58.8918 37.2861 56.9612 37.0718C55.0306 36.8575 53.1874 36.1512 51.6081 35.0203C47.4946 38.1449 43.681 41.6458 40.2169 45.4777C41.0891 46.8587 41.6486 48.4139 41.856 50.034C42.0634 51.6542 41.9137 53.3001 41.4175 54.8563C51.5691 61.6471 63.0994 66.104 75.1793 67.9063ZM89.9055 83.2357C90.3293 89.1954 90.172 95.1822 89.4357 101.111C98.5966 94.4287 105.395 85.0059 108.848 74.2051C104.688 75.2132 100.46 75.9207 96.1985 76.3221C95.7003 77.8551 94.8814 79.2645 93.7964 80.4565C92.7114 81.6486 91.385 82.596 89.9055 83.2357ZM72.5229 75.5391C59.6186 73.3896 47.3318 68.4748 36.5049 61.1319C34.0387 62.6485 31.0853 63.1632 28.2515 62.5703C23.0403 72.4362 19.8852 83.2569 18.9773 94.3775C24.0904 99.876 30.3061 104.234 37.2183 107.167C45.9801 93.6854 58.1631 82.7714 72.5229 75.5391ZM93.8205 18.4497C85.4467 19.2687 77.2463 21.3574 69.5011 24.6441C69.7132 26.7492 69.3293 28.8715 68.3933 30.7689C76.0765 39.7795 81.926 50.2039 85.6135 61.4567C87.8114 61.4963 89.9508 62.1721 91.7728 63.4021C93.5947 64.6322 95.0211 66.3639 95.8795 68.3877C101.018 67.8657 106.018 66.8797 110.832 65.4645C112.063 56.8341 111.155 48.0334 108.189 39.8357C105.223 31.638 100.289 24.2942 93.8205 18.4497ZM78.2359 81.6001C64.8597 87.8633 53.4 97.5869 45.0425 109.765C49.2798 110.826 53.6316 111.361 57.9997 111.36C65.779 111.367 73.4651 109.666 80.5153 106.378C81.6173 100.995 82.1973 95.4331 82.1973 89.7375C82.1973 87.6785 82.1045 85.6369 81.9479 83.6185C80.5932 83.1884 79.3333 82.5033 78.2359 81.6001Z" fill="#FFA132" fill-opacity="0.2"/>
</svg>
