<svg width="40" height="51" viewBox="0 0 40 51" fill="none" xmlns="http://www.w3.org/2000/svg">
<path d="M18.7105 32.1306C12.5052 22.986 12.2723 12.014 18.0757 2.20699C18.7958 0.990249 19.4894 -0.00294352 19.6167 6.55501e-06C19.744 0.00328442 20.3877 0.925347 21.0474 2.04867C28.1891 14.2141 28.665 25.9908 22.3065 33.1926C20.7048 35.0066 20.6517 34.9909 18.7105 32.1306Z" fill="#693912"/>
<path d="M2.76194 40.7783C1.66095 38.8109 0 34.4399 0 33.509C0 32.9445 1.02324 33.1182 4.75695 34.3169C13.1607 37.015 18.5855 41.9812 19.637 47.9397L19.8818 49.3263L20.5894 47.0318C22.2717 41.5768 26.3607 37.703 33.2376 35.0492C36.3004 33.8672 39.6719 32.9678 39.9603 33.2556C40.3022 33.5975 38.3588 38.8922 37.098 41.0536C33.6937 46.8895 26.7849 50.8656 20.012 50.8869C17.7375 50.8938 16.6618 50.7059 14.1763 49.8671C12.5003 49.3014 10.2944 48.3052 9.27414 47.6529C6.81922 46.0838 4.16114 43.278 2.76194 40.7783Z" fill="#693912"/>
</svg>
